# xmcd
#
# Track frame offsets:
#	150
#	9663
#	20788
#	33238
#	45650
#	57338
#	71700
#	80825
#	92700
#	105238
#	118263
#	130750
#	141975
#	152625
#	164025
#	173963
#	185313
#	197200
#	210325
#	223000
#
# Disc length: 3167 seconds
#
# Revision: 0
# Processed by: cddbd v1.5.1PL0 Copyright (c) Steve Scherf et al.
# Submitted via: dBpowerAMP V4.0
#
DISCID=240c5d14
DTITLE=George Jones [CD 1) - Kings and Queens Of Country Box Set
DYEAR=1994
DGENRE=Country
TTITLE0=The Race Is On
TTITLE1=Tender Years
TTITLE2=She Thinks I Still Care
TTITLE3=Take Me
TTITLE4=White Lightnin'
TTITLE5=A Good Year For The Roses
TTITLE6=Love Bug
TTITLE7=Milwaukee Here I Come
TTITLE8=Let's Get Together One More Time
TTITLE9=When The Grass Grows Over Me
TTITLE10=If My Heart Had Windows
TTITLE11=4033
TTITLE12=Treasures Of Love
TTITLE13=I'll Share My World With You
TTITLE14=I've Got Five Dollars
TTITLE15=Old Brush Arbors
TTITLE16=Small Time Laboring Man
TTITLE17=Things Have Gone To Pieces
TTITLE18=Long As We're Dreaming
TTITLE19=Family Bible
EXTD=
EXTT0=
EXTT1=
EXTT2=
EXTT3=
EXTT4=
EXTT5=
EXTT6=
EXTT7=
EXTT8=
EXTT9=
EXTT10=
EXTT11=
EXTT12=
EXTT13=
EXTT14=
EXTT15=
EXTT16=
EXTT17=
EXTT18=
EXTT19=
PLAYORDER=
